<svg width="67" height="33" viewBox="0 0 67 33" fill="none" xmlns="http://www.w3.org/2000/svg">
<g id="Group 1369">
<g id="GOBI">
<path d="M15.6081 10.9344V16.5441C15.6081 18.7614 14.9184 20.5751 13.5389 21.9852C12.088 23.4669 10.1976 24.2077 7.8679 24.2077C5.53817 24.2077 3.64782 23.4669 2.19685 21.9852C0.817408 20.5751 0.127686 18.7614 0.127686 16.5441V8.11416C0.127686 5.89684 0.817408 4.08312 2.19685 2.67302C3.64782 1.1914 5.53817 0.450586 7.8679 0.450586C10.2794 0.450586 12.1697 1.1914 13.5389 2.67302C14.9184 4.15465 15.6081 5.86618 15.6081 7.80762L12.696 9.18707H12.5427V8.11416C12.5427 6.74494 12.1748 5.63627 11.4391 4.78817C10.5297 3.73571 9.33931 3.20947 7.8679 3.20947C6.39649 3.20947 5.20608 3.73571 4.29667 4.78817C3.56097 5.63627 3.19312 6.74494 3.19312 8.11416V16.5441C3.19312 17.9133 3.56097 19.022 4.29667 19.8701C5.20608 20.9226 6.39649 21.4488 7.8679 21.4488C9.33931 21.4488 10.5297 20.9226 11.4391 19.8701C12.1748 19.022 12.5427 18.0155 12.5427 16.8506V13.7239H7.20883V13.5706L8.45033 10.9344H15.6081Z" fill="white"/>
<path d="M24.1766 16.5441C24.1766 17.9133 24.5445 19.022 25.2802 19.8701C26.1896 20.9226 27.38 21.4488 28.8514 21.4488C30.3228 21.4488 31.5132 20.9226 32.4226 19.8701C33.1583 19.022 33.5262 17.9133 33.5262 16.5441V8.11416C33.5262 6.74494 33.1583 5.63627 32.4226 4.78817C31.5132 3.73571 30.3228 3.20947 28.8514 3.20947C27.38 3.20947 26.1896 3.73571 25.2802 4.78817C24.5445 5.63627 24.1766 6.74494 24.1766 8.11416V16.5441ZM21.1112 16.5441V8.11416C21.1112 5.89684 21.8009 4.08312 23.1803 2.67302C24.6313 1.1914 26.5217 0.450586 28.8514 0.450586C31.1811 0.450586 33.0715 1.1914 34.5224 2.67302C35.9019 4.0729 36.5916 5.88662 36.5916 8.11416V16.5441C36.5916 18.7614 35.9019 20.5751 34.5224 21.9852C33.0715 23.4669 31.1811 24.2077 28.8514 24.2077C26.5217 24.2077 24.6313 23.4669 23.1803 21.9852C21.8009 20.5751 21.1112 18.7614 21.1112 16.5441Z" fill="white"/>
<path d="M45.1601 21.1422H49.5283C51.0713 21.1422 52.2974 20.6569 53.2069 19.6862C53.871 18.9811 54.2031 18.0513 54.2031 16.8966C54.2031 15.7011 53.8506 14.6946 53.1455 13.8772C52.3792 12.9371 51.1735 12.4671 49.5283 12.4671H45.1601V21.1422ZM45.1601 9.70819H49.5283C50.5501 9.70819 51.3727 9.3761 51.996 8.71192C52.5478 8.11927 52.8237 7.34781 52.8237 6.39752C52.8237 5.62095 52.4916 4.92101 51.8274 4.2977C51.2348 3.77658 50.4684 3.51602 49.5283 3.51602H45.1601V9.70819ZM42.0947 23.9011V1.52349L43.7193 0.757129H49.5283C51.2552 0.757129 52.6908 1.22716 53.8353 2.16723C55.1943 3.27078 55.8738 4.68599 55.8738 6.41285C55.8738 8.17036 55.0972 9.63155 53.544 10.7964C54.0447 11.011 54.5403 11.3329 55.0308 11.762C56.5226 13.121 57.2685 14.807 57.2685 16.82C57.2685 18.8432 56.6146 20.5036 55.3067 21.8013C53.9068 23.2012 51.9807 23.9011 49.5283 23.9011H42.0947Z" fill="white"/>
<path d="M62.4651 24.5142V1.52349L65.3772 0.144043H65.5305V23.1348L62.6183 24.5142H62.4651Z" fill="white"/>
</g>
<g id="cashmere for all">
<path d="M1.03344 30.0474C1.03344 30.3446 1.07059 30.6016 1.1449 30.8183C1.21921 31.0351 1.31622 31.2146 1.43594 31.3571C1.55566 31.4974 1.69085 31.6017 1.84153 31.6698C1.99428 31.7379 2.14805 31.7719 2.30286 31.7719C2.46386 31.7719 2.60938 31.7399 2.73941 31.676C2.86945 31.6099 2.98298 31.5243 3.07999 31.419C3.17907 31.3116 3.2606 31.1899 3.32458 31.0536C3.38857 30.9174 3.43501 30.777 3.46391 30.6326H4.20389C4.15848 30.8761 4.08314 31.1042 3.97787 31.3168C3.87467 31.5294 3.74256 31.7141 3.58156 31.871C3.42263 32.0279 3.23583 32.1517 3.02116 32.2426C2.8065 32.3313 2.56706 32.3757 2.30286 32.3757C1.99944 32.3757 1.72388 32.3241 1.47619 32.2209C1.23056 32.1156 1.02106 31.9629 0.847672 31.7627C0.674288 31.5624 0.540122 31.3178 0.445174 31.0289C0.352289 30.7399 0.305847 30.4107 0.305847 30.0412C0.305847 29.8513 0.325456 29.6655 0.364674 29.4839C0.405956 29.3002 0.464782 29.1268 0.541154 28.9637C0.617525 28.8007 0.712474 28.651 0.825999 28.5148C0.941588 28.3765 1.07266 28.2578 1.21921 28.1587C1.36576 28.0576 1.52882 27.9792 1.7084 27.9234C1.89004 27.8677 2.08613 27.8398 2.29667 27.8398C2.565 27.8398 2.80443 27.878 3.01497 27.9544C3.22551 28.0308 3.41024 28.1371 3.56918 28.2733C3.73018 28.4075 3.86435 28.5674 3.97168 28.7532C4.08107 28.939 4.16777 29.1423 4.23175 29.3631H3.4701C3.36071 29.0535 3.21003 28.8234 3.01807 28.6727C2.82611 28.52 2.58564 28.4436 2.29667 28.4436C2.1109 28.4436 1.94061 28.4869 1.7858 28.5736C1.631 28.6583 1.49786 28.7738 1.3864 28.9204C1.27494 29.0649 1.18825 29.2341 1.12632 29.4282C1.0644 29.6222 1.03344 29.8286 1.03344 30.0474Z" fill="white"/>
<path d="M7.4375 27.9482L9.01653 32.2673H8.25798L7.78736 31.0041H6.2331C6.16086 31.2126 6.08448 31.4241 6.00398 31.6388C5.92555 31.8514 5.85021 32.0609 5.77797 32.2673H5.01632L6.59535 27.9482H7.4375ZM7.01333 28.8554L6.46221 30.3911H7.55825L7.01333 28.8554Z" fill="white"/>
<path d="M10.6278 30.7595C10.636 30.9061 10.6649 31.0413 10.7145 31.1651C10.7661 31.2869 10.8331 31.3921 10.9157 31.4809C11.0003 31.5697 11.0984 31.6388 11.2098 31.6883C11.3213 31.7358 11.4441 31.7596 11.5783 31.7596C11.6959 31.7596 11.8084 31.7472 11.9158 31.7224C12.0231 31.6976 12.118 31.6584 12.2006 31.6048C12.2832 31.549 12.3492 31.4768 12.3988 31.388C12.4483 31.2972 12.4731 31.1868 12.4731 31.0567C12.4731 30.9391 12.4369 30.84 12.3647 30.7595C12.2945 30.679 12.2016 30.6099 12.086 30.5521C11.9705 30.4922 11.8384 30.4385 11.6897 30.3911C11.5411 30.3415 11.3894 30.291 11.2346 30.2394C11.0819 30.1878 10.9312 30.13 10.7826 30.066C10.634 29.9999 10.5019 29.9194 10.3863 29.8245C10.2707 29.7295 10.1768 29.616 10.1045 29.4839C10.0343 29.3518 9.99924 29.1929 9.99924 29.0071C9.99924 28.8172 10.0364 28.65 10.1107 28.5055C10.185 28.359 10.2893 28.2372 10.4234 28.1402C10.5596 28.0411 10.7206 27.9668 10.9064 27.9172C11.0922 27.8656 11.2965 27.8398 11.5195 27.8398C11.7176 27.8398 11.8931 27.8605 12.0458 27.9018C12.1985 27.941 12.3317 27.9947 12.4452 28.0628C12.5608 28.1309 12.6578 28.2114 12.7362 28.3043C12.8147 28.3971 12.8787 28.4962 12.9282 28.6015C12.9798 28.7047 13.018 28.8131 13.0428 28.9266C13.0675 29.0381 13.084 29.1474 13.0923 29.2548H12.3523C12.3399 29.1165 12.309 28.9968 12.2594 28.8956C12.212 28.7945 12.1511 28.7109 12.0768 28.6448C12.0045 28.5788 11.9199 28.5303 11.8229 28.4993C11.7279 28.4663 11.6268 28.4498 11.5195 28.4498C11.4224 28.4498 11.3265 28.4601 11.2315 28.4807C11.1386 28.4993 11.055 28.5303 10.9807 28.5736C10.9064 28.617 10.8466 28.6748 10.8011 28.747C10.7557 28.8172 10.733 28.9039 10.733 29.0071C10.733 29.1268 10.7681 29.2279 10.8383 29.3105C10.9105 29.391 11.0045 29.4622 11.12 29.5241C11.2356 29.5861 11.3677 29.6418 11.5164 29.6913C11.665 29.7388 11.8156 29.7894 11.9684 29.843C12.1232 29.8946 12.2749 29.9535 12.4235 30.0195C12.5721 30.0835 12.7042 30.1619 12.8198 30.2548C12.9354 30.3477 13.0283 30.4592 13.0985 30.5892C13.1707 30.7193 13.2068 30.8751 13.2068 31.0567C13.2068 31.2755 13.1656 31.4675 13.083 31.6326C13.0025 31.7957 12.89 31.9329 12.7455 32.0444C12.601 32.1538 12.4287 32.2364 12.2285 32.2921C12.0303 32.3478 11.8136 32.3757 11.5783 32.3757C11.3657 32.3757 11.1582 32.3385 10.956 32.2642C10.7557 32.1899 10.5762 32.0836 10.4172 31.9453C10.2604 31.805 10.1324 31.6347 10.0333 31.4345C9.93629 31.2342 9.88469 31.0093 9.8785 30.7595H10.6278Z" fill="white"/>
<path d="M15.0751 27.9482V29.7316H17.0256V27.9482H17.7625V32.2673H17.0256V30.3322H15.0751V32.2673H14.3444V27.9482H15.0751Z" fill="white"/>
<path d="M19.993 27.9482L21.2005 31.3354L22.4358 27.9482H23.2532V32.2673H22.5256V29.4127L21.5287 32.2673H20.9125L19.9001 29.4065V32.2673H19.1694V27.9482H19.993Z" fill="white"/>
<path d="M27.7253 27.9482V28.5643H25.4063V29.7316H27.5798V30.3539H25.4063V31.6388H27.8274V32.2673H24.6756V27.9482H27.7253Z" fill="white"/>
<path d="M32.2902 29.2176C32.2902 29.4055 32.2407 29.583 32.1416 29.7502C32.0425 29.9153 31.8929 30.0587 31.6927 30.1805C31.7897 30.2136 31.8722 30.261 31.9404 30.3229C32.0085 30.3849 32.0642 30.4551 32.1075 30.5335C32.1509 30.6099 32.1819 30.6924 32.2004 30.7812C32.2211 30.8699 32.2314 30.9577 32.2314 31.0443V31.6636C32.2314 31.7441 32.251 31.837 32.2902 31.9422C32.3294 32.0475 32.3821 32.1559 32.4481 32.2673H31.6493C31.6184 32.2178 31.5926 32.1662 31.5719 32.1125C31.5533 32.0589 31.5389 32.0072 31.5286 31.9577C31.5183 31.9061 31.511 31.8576 31.5069 31.8122C31.5048 31.7647 31.5038 31.7245 31.5038 31.6914V31.032C31.5038 30.968 31.4924 30.905 31.4697 30.8431C31.4491 30.7791 31.415 30.7224 31.3676 30.6728C31.3201 30.6212 31.2571 30.5799 31.1787 30.549C31.1003 30.5159 31.0053 30.4994 30.8939 30.4994H29.7916V32.2673H29.0609V27.9482H30.8939C31.1168 27.9482 31.3149 27.9854 31.4883 28.0597C31.6617 28.134 31.8072 28.231 31.9249 28.3507C32.0446 28.4704 32.1354 28.6067 32.1973 28.7594C32.2593 28.9101 32.2902 29.0628 32.2902 29.2176ZM29.7916 29.8833H30.8939C30.9826 29.8833 31.0662 29.8678 31.1446 29.8369C31.2251 29.8038 31.2953 29.7595 31.3552 29.7037C31.4171 29.6459 31.4656 29.5768 31.5007 29.4963C31.5358 29.4158 31.5533 29.327 31.5533 29.23C31.5533 29.1351 31.5368 29.0473 31.5038 28.9668C31.4708 28.8843 31.4243 28.8141 31.3645 28.7563C31.3067 28.6964 31.2375 28.65 31.157 28.617C31.0765 28.5819 30.9888 28.5643 30.8939 28.5643H29.7916V29.8833Z" fill="white"/>
<path d="M36.7127 27.9482V28.5643H34.3937V29.7316H36.5672V30.3539H34.3937V31.6388H36.8149V32.2673H33.6631V27.9482H36.7127Z" fill="white"/>
<path d="M42.796 27.9482V28.5643H40.5452V29.7316H42.4957V30.3539H40.5452V32.2673H39.8145V27.9482H42.796Z" fill="white"/>
<path d="M47.7697 30.1C47.7697 30.4344 47.7253 30.7409 47.6366 31.0196C47.5478 31.2982 47.4178 31.5387 47.2464 31.741C47.0772 31.9412 46.8677 32.097 46.6179 32.2085C46.3682 32.32 46.0833 32.3757 45.7634 32.3757C45.4455 32.3757 45.1627 32.32 44.915 32.2085C44.6674 32.097 44.4589 31.9412 44.2896 31.741C44.1204 31.5387 43.9914 31.2982 43.9026 31.0196C43.8159 30.7389 43.7726 30.4303 43.7726 30.0938C43.7726 29.7595 43.8159 29.454 43.9026 29.1774C43.9914 28.9008 44.1204 28.6634 44.2896 28.4653C44.4589 28.2671 44.6674 28.1133 44.915 28.0039C45.1627 27.8945 45.4455 27.8398 45.7634 27.8398C46.0833 27.8398 46.3682 27.8945 46.6179 28.0039C46.8677 28.1133 47.0772 28.2681 47.2464 28.4684C47.4178 28.6665 47.5478 28.9049 47.6366 29.1836C47.7253 29.4602 47.7697 29.7656 47.7697 30.1ZM47.0328 30.0938C47.0328 29.8317 46.9998 29.5995 46.9337 29.3972C46.8697 29.1929 46.78 29.0205 46.6644 28.8801C46.5508 28.7398 46.4167 28.6335 46.2619 28.5612C46.1071 28.4869 45.9409 28.4498 45.7634 28.4498C45.5838 28.4498 45.4177 28.4869 45.2649 28.5612C45.1122 28.6335 44.979 28.7398 44.8655 28.8801C44.752 29.0205 44.6632 29.1929 44.5992 29.3972C44.5353 29.5995 44.5033 29.8317 44.5033 30.0938C44.5033 30.3539 44.5353 30.5872 44.5992 30.7936C44.6632 31 44.752 31.1754 44.8655 31.3199C44.979 31.4623 45.1122 31.5717 45.2649 31.6481C45.4177 31.7224 45.5838 31.7596 45.7634 31.7596C45.9409 31.7596 46.1071 31.7224 46.2619 31.6481C46.4167 31.5717 46.5508 31.4623 46.6644 31.3199C46.78 31.1754 46.8697 31 46.9337 30.7936C46.9998 30.5872 47.0328 30.3539 47.0328 30.0938Z" fill="white"/>
<path d="M52.1736 29.2176C52.1736 29.4055 52.1241 29.583 52.025 29.7502C51.9259 29.9153 51.7763 30.0587 51.5761 30.1805C51.6731 30.2136 51.7557 30.261 51.8238 30.3229C51.8919 30.3849 51.9476 30.4551 51.991 30.5335C52.0343 30.6099 52.0653 30.6924 52.0838 30.7812C52.1045 30.8699 52.1148 30.9577 52.1148 31.0443V31.6636C52.1148 31.7441 52.1344 31.837 52.1736 31.9422C52.2129 32.0475 52.2655 32.1559 52.3315 32.2673H51.5327C51.5018 32.2178 51.476 32.1662 51.4553 32.1125C51.4368 32.0589 51.4223 32.0072 51.412 31.9577C51.4017 31.9061 51.3944 31.8576 51.3903 31.8122C51.3882 31.7647 51.3872 31.7245 51.3872 31.6914V31.032C51.3872 30.968 51.3759 30.905 51.3532 30.8431C51.3325 30.7791 51.2985 30.7224 51.251 30.6728C51.2035 30.6212 51.1406 30.5799 51.0621 30.549C50.9837 30.5159 50.8887 30.4994 50.7773 30.4994H49.675V32.2673H48.9444V27.9482H50.7773C51.0002 27.9482 51.1984 27.9854 51.3717 28.0597C51.5451 28.134 51.6906 28.231 51.8083 28.3507C51.928 28.4704 52.0188 28.6067 52.0808 28.7594C52.1427 28.9101 52.1736 29.0628 52.1736 29.2176ZM49.675 29.8833H50.7773C50.866 29.8833 50.9496 29.8678 51.0281 29.8369C51.1086 29.8038 51.1787 29.7595 51.2386 29.7037C51.3005 29.6459 51.349 29.5768 51.3841 29.4963C51.4192 29.4158 51.4368 29.327 51.4368 29.23C51.4368 29.1351 51.4202 29.0473 51.3872 28.9668C51.3542 28.8843 51.3077 28.8141 51.2479 28.7563C51.1901 28.6964 51.1209 28.65 51.0404 28.617C50.9599 28.5819 50.8722 28.5643 50.7773 28.5643H49.675V29.8833Z" fill="white"/>
<path d="M57.4612 27.9482L59.0403 32.2673H58.2817L57.8111 31.0041H56.2568C56.1846 31.2126 56.1082 31.4241 56.0277 31.6388C55.9493 31.8514 55.8739 32.0609 55.8017 32.2673H55.04L56.6191 27.9482H57.4612ZM57.0371 28.8554L56.4859 30.3911H57.582L57.0371 28.8554Z" fill="white"/>
<path d="M60.9116 27.9482V31.6388H62.9891V32.2673H60.1809V27.9482H60.9116Z" fill="white"/>
<path d="M64.8201 27.9482V31.6388H66.8976V32.2673H64.0894V27.9482H64.8201Z" fill="white"/>
</g>
</g>
</svg>
